#tb 0: 1001/30000
#tb 1: 1/90000
0,          0, -9223372036854775808,        1,     5951, 0xe9118e0d
1,          0,          0,     2160,      768, 0xaebcbebb
1,       2160,       2160,     2160,      768, 0xaebcbebb
0,          1, -9223372036854775808,        1,     1672, 0x4b80d4ca
1,       4320,       4320,     2160,      768, 0xaebcbebb
0,          2, -9223372036854775808,        1,     1604, 0x99e1b0a7
1,       6480,       6480,     2160,      768, 0x866fe37a
1,       8640,       8640,     2160,      768, 0x05d76890
0,          3, -9223372036854775808,        1,     1204, 0x9559038a
1,      10800,      10800,     2160,      768, 0x858f5511
0,          4, -9223372036854775808,        1,     1482, 0x60056564
1,      12960,      12960,     2160,      768, 0x97cb65ef
0,          5, -9223372036854775808,        1,     1105, 0xf508cef4
1,      15120,      15120,     2160,      768, 0xe269742c
1,      17280,      17280,     2160,      768, 0xa6015f8d
0,          6, -9223372036854775808,        1,     1193, 0xc8e0fd36
1,      19440,      19440,     2160,      768, 0x759163e0
0,          7, -9223372036854775808,        1,     1247, 0x8dd202e5
1,      21600,      21600,     2160,      768, 0xb1e16082
1,      23760,      23760,     2160,      768, 0x1b616429
0,          8, -9223372036854775808,        1,     1367, 0xf59435e5
1,      25920,      25920,     2160,      768, 0x7e4364f7
0,          9, -9223372036854775808,        1,     1406, 0x68ba4a7e
1,      28080,      28080,     2160,      768, 0x59bd64f7
0,         10, -9223372036854775808,        1,     1262, 0x82c04123
1,      30240,      30240,     2160,      768, 0xc3116fc6
1,      32400,      32400,     2160,      768, 0x6a1c6b56
0,         11, -9223372036854775808,        1,     1381, 0x02335cf9
1,      34560,      34560,     2160,      768, 0x285a64cf
0,         12, -9223372036854775808,        1,     1450, 0x7be46fd1
1,      36720,      36720,     2160,      768, 0x79b16d65
1,      38880,      38880,     2160,      768, 0x09b47635
0,         13, -9223372036854775808,        1,     1362, 0x75cc381a
1,      41040,      41040,     2160,      768, 0x81597446
0,         14, -9223372036854775808,        1,     1409, 0x9ed74f3f
1,      43200,      43200,     2160,      768, 0xfeb66eee
0,         15, -9223372036854775808,        1,     1253, 0x82400ae1
1,      45360,      45360,     2160,      768, 0x78557618
1,      47520,      47520,     2160,      768, 0x3af170bf
0,         16, -9223372036854775808,        1,     5499, 0xed286805
1,      49680,      49680,     2160,      768, 0xefbd6399
0,         17, -9223372036854775808,        1,     1403, 0x483c4cbc
1,      51840,      51840,     2160,      768, 0xc98e7492
1,      54000,      54000,     2160,      768, 0x010d7149
0,         18, -9223372036854775808,        1,     1632, 0xa9ebcd6c
1,      56160,      56160,     2160,      768, 0xce838b07
0,         19, -9223372036854775808,        1,     1207, 0xc8580724
1,      58320,      58320,     2160,      768, 0xed18726c
0,         20, -9223372036854775808,        1,     1289, 0x61fb2fd2
1,      60480,      60480,     2160,      768, 0x017e6712
1,      62640,      62640,     2160,      768, 0x7f9268e9
0,         21, -9223372036854775808,        1,     1230, 0xf348f53c
1,      64800,      64800,     2160,      768, 0xf6f258fc
0,         22, -9223372036854775808,        1,     1579, 0xa260b1ac
1,      66960,      66960,     2160,      768, 0x9a1a6f31
0,         23, -9223372036854775808,        1,      949, 0x91849002
1,      69120,      69120,     2160,      768, 0x14b47b23
1,      71280,      71280,     2160,      768, 0x9bdc6a50
0,         24, -9223372036854775808,        1,      786, 0x3e33576f
1,      73440,      73440,     2160,      768, 0x0fc46dab
0,         25, -9223372036854775808,        1,      894, 0x9ac36a61
1,      75600,      75600,     2160,      768, 0x6c387372
1,      77760,      77760,     2160,      768, 0x581e71cd
0,         26, -9223372036854775808,        1,     1186, 0x6bfc116e
1,      79920,      79920,     2160,      768, 0x00cb785f
0,         27, -9223372036854775808,        1,     1187, 0xcfc512ae
1,      82080,      82080,     2160,      768, 0x1dda7032
0,         28, -9223372036854775808,        1,     1527, 0x5c2c965a
1,      84240,      84240,     2160,      768, 0xf57c7103
1,      86400,      86400,     2160,      768, 0x2d927183
0,         29, -9223372036854775808,        1,     1536, 0x5ba7ac29
1,      88560,      88560,     2160,      768, 0xdae86cdf
0,         30, -9223372036854775808,        1,     1095, 0xce06eb96
1,      90720,      90720,     2160,      768, 0x2a2f6c3c
1,      92880,      92880,     2160,      768, 0x44696eba
0,         31, -9223372036854775808,        1,     1402, 0x642f6b0d
1,      95040,      95040,     2160,      768, 0xf67c71c4
0,         32, -9223372036854775808,        1,     5551, 0xf01a9c08
1,      97200,      97200,     2160,      768, 0xc1ce7237
0,         33, -9223372036854775808,        1,     1211, 0x350206f7
1,      99360,      99360,     2160,      768, 0xd9c36ef5
1,     101520,     101520,     2160,      768, 0x63b06b03
0,         34, -9223372036854775808,        1,      887, 0x08767619
1,     103680,     103680,     2160,      768, 0x8de97ebe
0,         35, -9223372036854775808,        1,     1042, 0xcc81a9ed
1,     105840,     105840,     2160,      768, 0xbf117c32
1,     108000,     108000,     2160,      768, 0x82897497
0,         36, -9223372036854775808,        1,     1247, 0x6f320614
1,     110160,     110160,     2160,      768, 0x7a347abb
0,         37, -9223372036854775808,        1,     1459, 0xd28975b5
1,     112320,     112320,     2160,      768, 0xc99b691e
0,         38, -9223372036854775808,        1,     1116, 0x1ab1e9db
1,     114480,     114480,     2160,      768, 0xf4fc6e74
1,     116640,     116640,     2160,      768, 0x511d6ec4
0,         39, -9223372036854775808,        1,     1110, 0x6411f66a
1,     118800,     118800,     2160,      768, 0xb8c06b5f
0,         40, -9223372036854775808,        1,     1282, 0xd468375d
1,     120960,     120960,     2160,      768, 0xf1776aed
1,     123120,     123120,     2160,      768, 0xe6fe7fb4
0,         41, -9223372036854775808,        1,     1077, 0x1273c6e3
1,     125280,     125280,     2160,      768, 0x36907aff
0,         42, -9223372036854775808,        1,     1043, 0x12dbd3ae
1,     127440,     127440,     2160,      768, 0xddf666bb
0,         43, -9223372036854775808,        1,     1087, 0x3e70d37a
1,     129600,     129600,     2160,      768, 0x8e896ebc
1,     131760,     131760,     2160,      768, 0x0aa47dfa
0,         44, -9223372036854775808,        1,      992, 0x0651a71c
1,     133920,     133920,     2160,      768, 0xc1736811
0,         45, -9223372036854775808,        1,     1012, 0x6a069f8c
1,     136080,     136080,     2160,      768, 0xb3e87009
0,         46, -9223372036854775808,        1,     1320, 0x92803d69
1,     138240,     138240,     2160,      768, 0xf23e6c00
1,     140400,     140400,     2160,      768, 0x993a71d2
0,         47, -9223372036854775808,        1,     1080, 0xe0ffbe95
1,     142560,     142560,     2160,      768, 0xa53466dd
0,         48, -9223372036854775808,        1,     5639, 0x658ca26b
1,     144720,     144720,     2160,      768, 0xb43a74b0
1,     146880,     146880,     2160,      768, 0x348f615c
0,         49, -9223372036854775808,        1,     1385, 0xbcb96241
1,     149040,     149040,     2160,      768, 0x298f6e1b
0,         50, -9223372036854775808,        1,     1142, 0x8c6df318
1,     151200,     151200,     2160,      768, 0x5db469c8
0,         51, -9223372036854775808,        1,     1175, 0xcac1faef
1,     153360,     153360,     2160,      768, 0x08f16c2c
1,     155520,     155520,     2160,      768, 0x4a0474cb
0,         52, -9223372036854775808,        1,     1091, 0xa937e32a
1,     157680,     157680,     2160,      768, 0x077c760b
0,         53, -9223372036854775808,        1,     1174, 0xfa50040d
1,     159840,     159840,     2160,      768, 0xa5777c2e
1,     162000,     162000,     2160,      768, 0x0d157ea6
0,         54, -9223372036854775808,        1,     1293, 0x0c8d2740
1,     164160,     164160,     2160,      768, 0x9bc26f86
0,         55, -9223372036854775808,        1,     1262, 0x502c0c35
1,     166320,     166320,     2160,      768, 0x1a72742d
0,         56, -9223372036854775808,        1,     1038, 0x5e98c0cd
1,     168480,     168480,     2160,      768, 0xa5bb6bbb
1,     170640,     170640,     2160,      768, 0x48496c4c
0,         57, -9223372036854775808,        1,     1362, 0x256e43cf
1,     172800,     172800,     2160,      768, 0x800d78f0
0,         58, -9223372036854775808,        1,     1200, 0x29e6f055
1,     174960,     174960,     2160,      768, 0x40db840c
1,     177120,     177120,     2160,      768, 0xadc96a6b
0,         59, -9223372036854775808,        1,     1495, 0x88e9b973
1,     179280,     179280,     2160,      768, 0xff986b03
0,         60, -9223372036854775808,        1,     1386, 0x849297d2
1,     181440,     181440,     2160,      768, 0x152473d6
0,         61, -9223372036854775808,        1,     1572, 0x63b7dc79
1,     183600,     183600,     2160,      768, 0x01567323
1,     185760,     185760,     2160,      768, 0xe5f26fe5
0,         62, -9223372036854775808,        1,     1190, 0x32ccf4cb
1,     187920,     187920,     2160,      768, 0xa8fd72cd
0,         63, -9223372036854775808,        1,     1395, 0xa6ec4ae9
1,     190080,     190080,     2160,      768, 0x8857655b
0,         64, -9223372036854775808,        1,     5692, 0x81aed6f3
1,     192240,     192240,     2160,      768, 0x84017b13
1,     194400,     194400,     2160,      768, 0xe6a968b3
0,         65, -9223372036854775808,        1,     1335, 0xe98a5497
1,     196560,     196560,     2160,      768, 0xb03a7566
0,         66, -9223372036854775808,        1,     1361, 0x8ae15ab5
1,     198720,     198720,     2160,      768, 0x8bea5f62
1,     200880,     200880,     2160,      768, 0xac7570b0
0,         67, -9223372036854775808,        1,     1525, 0xed2bc1e8
1,     203040,     203040,     2160,      768, 0x11306fac
0,         68, -9223372036854775808,        1,     1570, 0xba70d74b
1,     205200,     205200,     2160,      768, 0xf2af5b28
0,         69, -9223372036854775808,        1,     1349, 0xd97a687d
1,     207360,     207360,     2160,      768, 0x3069681f
1,     209520,     209520,     2160,      768, 0x7ff07033
0,         70, -9223372036854775808,        1,     1270, 0xca8c3ca8
1,     211680,     211680,     2160,      768, 0xd74973f2
0,         71, -9223372036854775808,        1,     1016, 0x32d0c81a
1,     213840,     213840,     2160,      768, 0xb3627304
1,     216000,     216000,     2160,      768, 0x11ff7589
0,         72, -9223372036854775808,        1,      983, 0x536faa97
1,     218160,     218160,     2160,      768, 0x4a156c63
0,         73, -9223372036854775808,        1,     1111, 0x44ade015
1,     220320,     220320,     2160,      768, 0xcb036127
0,         74, -9223372036854775808,        1,     1314, 0xce7c477d
1,     222480,     222480,     2160,      768, 0x0b796bb9
1,     224640,     224640,     2160,      768, 0x1d516c35
0,         75, -9223372036854775808,        1,     1005, 0x0196b491
1,     226800,     226800,     2160,      768, 0xa9146da1
0,         76, -9223372036854775808,        1,     1162, 0xb8f6ebe6
1,     228960,     228960,     2160,      768, 0x6d176392
1,     231120,     231120,     2160,      768, 0x6f966269
0,         77, -9223372036854775808,        1,     1440, 0xfca67c72
1,     233280,     233280,     2160,      768, 0x7ee17724
0,         78, -9223372036854775808,        1,     1437, 0x491181b1
1,     235440,     235440,     2160,      768, 0x3f07614a
0,         79, -9223372036854775808,        1,     1261, 0xf0cd1898
1,     237600,     237600,     2160,      768, 0x49d56945
1,     239760,     239760,     2160,      768, 0x68eb660a
0,         80, -9223372036854775808,        1,     5638, 0x3a25a9f2
1,     241920,     241920,     2160,      768, 0xe7c96677
0,         81, -9223372036854775808,        1,     1091, 0x67d9c693
1,     244080,     244080,     2160,      768, 0x7dc07a35
1,     246240,     246240,     2160,      768, 0x1e9c6397
0,         82, -9223372036854775808,        1,      875, 0x52147bb1
1,     248400,     248400,     2160,      768, 0x93ef5de4
0,         83, -9223372036854775808,        1,     1188, 0x8522000f
1,     250560,     250560,     2160,      768, 0x34af6803
0,         84, -9223372036854775808,        1,     1360, 0x89b82e7b
1,     252720,     252720,     2160,      768, 0x77e068be
1,     254880,     254880,     2160,      768, 0x65e274de
0,         85, -9223372036854775808,        1,     1378, 0xe8644914
1,     257040,     257040,     2160,      768, 0xb7ad6a8a
0,         86, -9223372036854775808,        1,     1194, 0x89fef83d
1,     259200,     259200,     2160,      768, 0x84b3635f
0,         87, -9223372036854775808,        1,     1422, 0x99daa18b
1,     261360,     261360,     2160,      768, 0x066b78f2
1,     263520,     263520,     2160,      768, 0xda137428
0,         88, -9223372036854775808,        1,     1049, 0x72a9cec1
1,     265680,     265680,     2160,      768, 0xfd6c7597
0,         89, -9223372036854775808,        1,     1327, 0x7d15307c
1,     267840,     267840,     2160,      768, 0x8d766d40
